<svg width="123" height="136" viewBox="0 0 123 136" fill="none" xmlns="http://www.w3.org/2000/svg">
<path d="M109.333 -0.000244141H20.5C12.259 -0.000244141 0 5.43296 0 20.3998V115.6C0 130.567 12.259 136 20.5 136H123V122.4H20.582C17.425 122.318 13.6667 121.074 13.6667 115.6C13.6667 114.913 13.7282 114.301 13.8307 113.743C14.596 109.833 17.8145 108.868 20.5752 108.8H116.167C116.29 108.8 116.379 108.739 116.502 108.732H123V13.5998C123 6.09936 116.871 -0.000244141 109.333 -0.000244141ZM109.333 95.1998H13.6667V20.3998C13.6667 14.919 17.425 13.6814 20.5 13.5998H68.3333V61.1998L82 54.3998L95.6667 61.1998V13.5998H109.333V95.1998Z" fill="#4FAAE7"/>
</svg>
