<svg width="147" height="142" viewBox="0 0 147 142" fill="none" xmlns="http://www.w3.org/2000/svg">
<path d="M136.704 24.4815H115.307C114.008 24.4815 112.763 24.9974 111.845 25.9156C110.926 26.8338 110.411 28.0792 110.411 29.3778C110.411 30.6764 110.926 31.9218 111.845 32.84C112.763 33.7582 114.008 34.2741 115.307 34.2741H137.095V132.2H9.79207V34.2741H31.2378C32.5363 34.2741 33.7817 33.7582 34.7 32.84C35.6182 31.9218 36.1341 30.6764 36.1341 29.3778C36.1341 28.0792 35.6182 26.8338 34.7 25.9156C33.7817 24.9974 32.5363 24.4815 31.2378 24.4815H10.1838C8.86522 24.4287 7.5496 24.643 6.31592 25.1114C5.08225 25.5799 3.95598 26.2928 3.00476 27.2075C2.05354 28.1221 1.297 29.2195 0.780561 30.4339C0.264126 31.6483 -0.00154127 32.9545 -0.000485145 34.2741V132.2C-0.00154127 133.519 0.264126 134.826 0.780561 136.04C1.297 137.254 2.05354 138.352 3.00476 139.266C3.95598 140.181 5.08225 140.894 6.31592 141.362C7.5496 141.831 8.86522 142.045 10.1838 141.992H136.704C138.022 142.045 139.338 141.831 140.571 141.362C141.805 140.894 142.931 140.181 143.883 139.266C144.834 138.352 145.59 137.254 146.107 136.04C146.623 134.826 146.889 133.519 146.888 132.2V34.2741C146.889 32.9545 146.623 31.6483 146.107 30.4339C145.59 29.2195 144.834 28.1221 143.883 27.2075C142.931 26.2928 141.805 25.5799 140.571 25.1114C139.338 24.643 138.022 24.4287 136.704 24.4815V24.4815Z" fill="#4FAAE7"/>
<path d="M35.7429 77.704L70.0168 111.439C70.9321 112.337 72.1626 112.839 73.4442 112.839C74.7258 112.839 75.9564 112.337 76.8716 111.439L111.146 77.704C112.074 76.795 112.603 75.5544 112.617 74.2551C112.631 72.9558 112.128 71.7043 111.219 70.7758C110.31 69.8473 109.069 69.3179 107.77 69.3042C106.471 69.2904 105.219 69.7933 104.291 70.7023L78.3405 96.2119V4.89634C78.3405 3.59777 77.8247 2.35238 76.9064 1.43415C75.9882 0.515917 74.7428 6.10352e-05 73.4442 6.10352e-05C72.1457 6.10352e-05 70.9003 0.515917 69.982 1.43415C69.0638 2.35238 68.5479 3.59777 68.5479 4.89634V96.2119L42.5977 70.7023C41.6692 69.7933 40.4176 69.2904 39.1183 69.3042C37.819 69.3179 36.5784 69.8473 35.6694 70.7758C34.7604 71.7043 34.2575 72.9558 34.2713 74.2551C34.285 75.5544 34.8144 76.795 35.7429 77.704V77.704Z" fill="#4FAAE7"/>
</svg>
