<svg width="150" height="118" viewBox="0 0 150 118" fill="none" xmlns="http://www.w3.org/2000/svg">
<path d="M42.856 64.2857C42.8459 70.186 44.4627 75.9749 47.5288 81.0161C50.5949 86.0572 54.9916 90.1554 60.2355 92.8601C65.4794 95.5648 71.3675 96.7714 77.2525 96.3471C83.1376 95.9229 88.7918 93.8842 93.5935 90.4553L120.995 117.857L128.57 110.282L101.169 82.8803C104.098 78.7588 106.013 74.004 106.759 69.0026C107.504 64.0012 107.058 58.8945 105.458 54.0979C103.857 49.3013 101.147 44.9503 97.5471 41.3987C93.9477 37.8472 89.5607 35.1954 84.7431 33.6592C79.9255 32.123 74.8133 31.7456 69.8223 32.5579C64.8314 33.3701 60.1026 35.349 56.0207 38.3335C51.9388 41.3181 48.6191 45.224 46.3315 49.7336C44.0439 54.2432 42.8531 59.2291 42.856 64.2857ZM53.5703 64.2857C53.5703 60.0475 54.8271 55.9045 57.1817 52.3806C59.5363 48.8567 62.8829 46.1101 66.7985 44.4883C70.7141 42.8664 75.0226 42.442 79.1794 43.2689C83.3361 44.0957 87.1543 46.1366 90.1511 49.1334C93.148 52.1302 95.1889 55.9484 96.0157 60.1052C96.8425 64.2619 96.4182 68.5705 94.7963 72.486C93.1744 76.4016 90.4278 79.7483 86.9039 82.1029C83.38 84.4575 79.237 85.7143 74.9989 85.7143C69.3178 85.7072 63.8715 83.4472 59.8544 79.4301C55.8373 75.413 53.5774 69.9667 53.5703 64.2857Z" fill="#4FAAE7"/>
<path d="M144.642 16.0712H110.035L100.874 2.41047C100.39 1.67186 99.731 1.06491 98.955 0.644143C98.1789 0.22337 97.3104 0.0019458 96.4276 -0.000244141H53.5705C52.6876 0.0019458 51.8192 0.22337 51.0431 0.644143C50.267 1.06491 49.6076 1.67186 49.124 2.41047L39.9633 16.0712H5.35617C3.93667 16.0754 2.57652 16.6412 1.57278 17.6449C0.569036 18.6487 0.00326288 20.0088 -0.000976562 21.4283V112.5C0.00326288 113.919 0.569036 115.279 1.57278 116.283C2.57652 117.287 3.93667 117.853 5.35617 117.857H53.5705V107.143H10.7133V26.7855H42.8562C43.739 26.7833 44.6074 26.5619 45.3835 26.1411C46.1596 25.7203 46.819 25.1134 47.3026 24.3748L56.4633 10.714H93.5347L102.695 24.3748C103.179 25.1134 103.838 25.7203 104.615 26.1411C105.391 26.5619 106.259 26.7833 107.142 26.7855H139.285V91.0712H149.999V21.4283C149.995 20.0088 149.429 18.6487 148.425 17.6449C147.422 16.6412 146.061 16.0754 144.642 16.0712Z" fill="#4FAAE7"/>
</svg>
