<svg width="127" height="127" viewBox="0 0 127 127" fill="none" xmlns="http://www.w3.org/2000/svg">
<path d="M112.351 127H111.521C15.5739 121.48 1.95081 40.4935 0.046508 15.7774C-0.106933 13.8557 0.120183 11.9226 0.714843 10.0888C1.3095 8.25505 2.26002 6.5567 3.51193 5.09106C4.76384 3.62542 6.29254 2.42131 8.01043 1.5477C9.72833 0.674094 11.6017 0.148171 13.5231 6.56149e-05H40.4274C42.3833 -0.00182846 44.2946 0.583824 45.9139 1.68116C47.5332 2.7785 48.7858 4.33697 49.5094 6.15468L56.9313 24.4231C57.6459 26.1989 57.8233 28.1456 57.4413 30.0214C57.0594 31.8971 56.1349 33.6193 54.7829 34.9739L44.3825 45.4758C46.0071 54.7114 50.4283 63.2249 57.048 69.8645C63.6677 76.5041 72.1664 80.9494 81.3942 82.5989L91.99 72.097C93.3645 70.7594 95.1022 69.8562 96.9865 69.5C98.8707 69.1439 100.818 69.3506 102.586 70.0943L120.994 77.4701C122.784 78.2168 124.31 79.4797 125.38 81.0977C126.45 82.7157 127.013 84.6157 127 86.5554V112.346C127 116.233 125.456 119.96 122.709 122.708C119.962 125.456 116.236 127 112.351 127ZM14.695 9.7693C13.4 9.7693 12.158 10.2839 11.2423 11.2C10.3266 12.116 9.81214 13.3584 9.81214 14.6539V15.0447C12.0582 43.9616 26.4626 112.346 112.058 117.231C112.7 117.27 113.343 117.183 113.95 116.974C114.558 116.764 115.118 116.437 115.599 116.01C116.08 115.584 116.472 115.066 116.753 114.488C117.033 113.909 117.197 113.281 117.234 112.639V86.5554L98.8259 79.1797L84.8122 93.1008L82.4685 92.8078C39.988 87.4835 34.2262 44.9874 34.2262 44.5478L33.9333 42.2031L47.8005 28.1843L40.4762 9.7693H14.695Z" fill="#4FAAE7"/>
</svg>
