<svg width="150" height="145" viewBox="0 0 150 145" fill="none" xmlns="http://www.w3.org/2000/svg">
<path fill-rule="evenodd" clip-rule="evenodd" d="M132.771 141.587C137.748 146.583 140.823 143.03 144.91 138.953C148.996 134.875 152.54 131.791 147.562 126.805C147.562 126.805 78.1796 57.4874 61.0448 40.3995L46.2534 55.1816L132.771 141.587Z" fill="#4FAAE7"/>
<path fill-rule="evenodd" clip-rule="evenodd" d="M18.7021 67.2172L24.4574 61.5556C24.4574 61.5556 21.9172 54.5911 25.6385 51.2541C29.3597 47.9171 35.64 49.9793 35.64 49.9793L55.8399 30.4543C55.8399 30.4543 54.4245 20.3028 56.2992 18.4281C58.1739 16.5534 79.1237 6.34562 81.1484 4.3022L76.8459 -0.000244141C76.8459 -0.000244141 47.5256 3.52419 44.348 6.69244C42.4826 8.56714 28.5255 22.6649 18.5708 32.6196C18.5708 32.6196 21.0642 39.734 17.7835 43.0148C14.4934 46.3049 7.08828 43.9521 7.08828 43.9521L1.24859 49.7824C-1.21664 52.2664 0.23625 55.7534 3.26389 58.781L9.69412 65.2112C12.7405 68.2483 16.2368 69.6824 18.7021 67.2172Z" fill="#4FAAE7"/>
<path fill-rule="evenodd" clip-rule="evenodd" d="M109.48 53.1569C119.576 57.9467 132.239 56.4751 140.619 48.0952C147.087 41.6274 149.655 32.732 148.277 24.3708L134.02 38.6092L121.891 41.6181L108.187 28.1015L111.402 15.5691L125.528 1.62133C117.157 0.252795 107.699 2.23061 101.232 8.7077C92.8424 17.097 91.6988 30.0699 96.4887 40.1746L87.1714 49.4824L100.182 62.4648L109.48 53.1569Z" fill="#4FAAE7"/>
<path fill-rule="evenodd" clip-rule="evenodd" d="M69.1688 96.3125L55.0617 82.2147L42.8011 94.4846C42.0769 95.1959 41.5003 96.0432 41.1045 96.978C40.3828 96.6968 39.9797 96.6874 39.7266 96.7905C37.3413 95.9601 34.8377 95.5202 32.3122 95.4876C19.3674 95.4876 8.87842 105.845 8.87842 118.631C8.87842 131.416 19.3674 141.774 32.3122 141.774C45.257 141.774 55.7459 131.416 55.7459 118.631C55.7459 115.978 55.1929 113.466 54.3774 111.094C54.3305 110.87 54.3212 110.663 54.1899 110.335C55.2001 109.937 56.1186 109.338 56.8895 108.573L69.1688 96.3125ZM32.3122 132.11C24.7009 132.11 18.5425 126.083 18.5425 118.631C18.5425 111.179 24.6915 105.152 32.3122 105.152C39.9328 105.152 46.0819 111.179 46.0819 118.631C46.0819 126.083 39.9235 132.11 32.3122 132.11Z" fill="#4FAAE7"/>
</svg>
